<svg version="1.1" id="Layer_1" xmlns="http://www.w3.org/2000/svg" xmlns:xlink="http://www.w3.org/1999/xlink" x="0px" y="0px"
	 width="100%" viewBox="0 0 500 500" enable-background="new 0 0 500 500" xml:space="preserve">
<path fill="none" opacity="1.000000" stroke="#000000" stroke-linecap="round" stroke-linejoin="round" stroke-width="5.000000"
	d="
M358.500000,309.500000 
	C344.457672,309.092407 330.459198,308.129517 316.493561,306.557068 
	C311.867371,306.036163 307.172699,306.368805 302.494659,306.089722 
	C272.352722,304.291260 242.155701,304.568970 212.004272,305.203278 
	C190.315643,305.659485 168.668091,308.021240 146.998260,309.474060 
	C144.177612,309.663177 141.333328,309.500000 138.500000,309.500000 
"/>
<path fill="none" opacity="1.000000" stroke="#000000" stroke-linecap="round" stroke-linejoin="round" stroke-width="9.000000"
	d="
M239.500000,135.500000 
	C236.400391,144.933380 235.694580,154.605911 235.917404,164.501862 
	C236.239975,178.827927 236.053207,193.166946 235.977554,207.499878 
	C235.939728,214.667236 236.670578,222.041977 235.235825,228.945099 
	C233.588882,236.869202 233.917725,244.685867 234.187683,252.493515 
	C234.390610,258.362488 235.079880,264.316589 237.292267,270.079742 
	C238.596207,273.476501 237.833344,277.666656 238.000000,281.500000 
"/>
<path fill="none" opacity="1.000000" stroke="#000000" stroke-linecap="round" stroke-linejoin="round" stroke-width="15.000000"
	d="
M294.500000,169.000000 
	C290.399750,174.524734 291.857239,180.549316 293.048889,186.490189 
	C293.416565,188.323181 294.037170,190.057663 294.033997,192.000061 
	C293.985229,221.833298 294.009460,251.666687 293.964172,281.499939 
	C293.962433,282.652802 294.801392,283.902496 293.357056,284.760651 
	C288.411591,287.617859 283.336914,285.626556 277.972778,284.649353 
	C263.110504,281.941925 248.150879,279.480469 232.987717,282.946259 
	C229.905869,283.650726 226.653152,283.571045 223.502350,284.016632 
	C210.193436,285.898621 197.334641,289.570496 184.471497,293.404358 
	C168.590714,298.137695 152.500000,302.166656 136.500000,306.500000 
"/>
<path fill="none" opacity="1.000000" stroke="#000000" stroke-linecap="round" stroke-linejoin="round" stroke-width="2.000000"
	d="
M242.500000,142.500000 
	C242.500000,176.500000 242.500000,210.500000 242.500000,244.500000 
"/>
<path fill="none" opacity="1.000000" stroke="#000000" stroke-linecap="round" stroke-linejoin="round" stroke-width="3.000000"
	d="
M307.000000,189.000000 
	C307.000000,220.666672 307.016632,252.333359 306.957275,283.999908 
	C306.953827,285.833893 306.333344,287.666656 306.000000,289.500000 
"/>
<path fill="none" opacity="1.000000" stroke="#000000" stroke-linecap="round" stroke-linejoin="round" stroke-width="4.000000"
	d="
M314.500000,192.500000 
	C314.500000,218.833328 314.371033,245.167725 314.587494,271.499268 
	C314.644104,278.384735 315.512909,285.248596 313.500000,292.000000 
"/>
<path fill="none" opacity="1.000000" stroke="#000000" stroke-linecap="round" stroke-linejoin="round" stroke-width="7.000000"
	d="
M225.000000,283.000000 
	C225.000000,255.333328 225.001862,227.666672 224.998688,200.000000 
	C224.997879,192.986649 222.863541,191.140686 216.006500,192.531998 
	C211.645859,193.416794 207.930267,195.255920 204.361481,198.339691 
	C198.276062,203.598022 192.882645,209.152191 189.500000,216.500000 
"/>
<path fill="none" opacity="1.000000" stroke="#000000" stroke-linecap="round" stroke-linejoin="round" stroke-width="2.000000"
	d="
M291.500000,299.500000 
	C259.810577,297.670563 228.149307,298.518127 196.500000,300.500000 
"/>
<path fill="none" opacity="1.000000" stroke="#000000" stroke-linecap="round" stroke-linejoin="round" stroke-width="10.000000"
	d="
M215.000000,193.500000 
	C216.072525,199.284256 216.746185,205.019073 216.646042,211.002441 
	C216.277908,232.996277 216.535248,255.000137 216.447266,276.999786 
	C216.438141,279.281128 217.072906,281.347748 217.500000,283.500000 
"/>
<path fill="none" opacity="1.000000" stroke="#000000" stroke-linecap="round" stroke-linejoin="round" stroke-width="2.000000"
	d="
M289.500000,294.500000 
	C278.166656,293.833344 266.818298,292.439026 255.503586,292.673157 
	C239.157166,293.011475 222.754425,293.173767 206.494705,295.462402 
	C204.533554,295.738434 202.500000,295.500000 200.500000,295.500000 
"/>
<path fill="none" opacity="1.000000" stroke="#000000" stroke-linecap="round" stroke-linejoin="round" stroke-width="8.000000"
	d="
M210.500000,208.500000 
	C208.041092,213.208221 207.358002,218.176651 207.418640,223.500931 
	C207.629288,241.998535 207.515518,260.500031 207.481003,278.999969 
	C207.476517,281.401611 207.587631,283.749390 208.500000,286.000000 
"/>
<path fill="none" opacity="1.000000" stroke="#000000" stroke-linecap="round" stroke-linejoin="round" stroke-width="6.000000"
	d="
M201.500000,217.500000 
	C200.039612,218.941254 200.523163,220.786316 200.513779,222.500076 
	C200.479080,228.833206 200.492950,235.166687 200.503540,241.500000 
	C200.507645,243.946060 200.657654,246.355042 199.037018,248.527603 
	C197.831711,250.143387 197.962845,252.545441 198.630692,253.937286 
	C202.001648,260.962402 199.932053,268.325378 200.473328,275.502014 
	C200.786758,279.657593 200.833328,283.833344 200.999985,288.000000 
"/>
<path fill="none" opacity="1.000000" stroke="#000000" stroke-linecap="round" stroke-linejoin="round" stroke-width="6.000000"
	d="
M195.000000,222.500000 
	C190.720749,223.861969 190.575775,227.570969 190.551575,231.000366 
	C190.436371,247.332886 190.416687,263.667419 190.566544,279.999390 
	C190.598557,283.488251 188.364487,287.117554 191.000000,290.500000 
"/>
<path fill="none" opacity="1.000000" stroke="#000000" stroke-linecap="round" stroke-linejoin="round" stroke-width="2.000000"
	d="
M186.500000,228.500000 
	C186.500000,245.166672 186.477234,261.833435 186.535400,278.499878 
	C186.541183,280.157104 185.941299,281.922546 187.000000,283.500000 
"/>
<path fill="none" opacity="1.000000" stroke="#000000" stroke-linecap="round" stroke-linejoin="round" stroke-width="9.000000"
	d="
M294.500000,285.000000 
	C296.538971,288.017090 299.733826,289.111115 303.003387,289.987427 
	C322.996613,295.345947 342.996246,300.680878 363.006287,305.976257 
	C364.844727,306.462769 366.379181,308.054108 368.500000,307.500000 
"/>
<path fill="none" opacity="1.000000" stroke="#000000" stroke-linecap="round" stroke-linejoin="round" stroke-width="8.000000"
	d="
M240.500000,129.500000 
	C250.372879,135.763367 258.635468,144.085510 267.992493,151.010132 
	C270.858948,153.131409 273.593079,155.434937 276.410522,157.615601 
	C279.736603,160.189926 283.687408,162.532608 284.951538,167.013672 
	C285.452362,168.788895 287.026154,168.294098 288.000000,169.000000 
"/>
<path fill="none" opacity="1.000000" stroke="#000000" stroke-linecap="round" stroke-linejoin="round" stroke-width="4.000000"
	d="
M197.000000,256.500000 
	C196.500000,257.166656 195.542328,257.851837 195.568436,258.497223 
	C195.979767,268.662109 194.398178,278.891327 196.500000,289.000000 
"/>
<path fill="none" opacity="1.000000" stroke="#000000" stroke-linecap="round" stroke-linejoin="round" stroke-width="2.000000"
	d="
M230.500000,152.500000 
	C230.500000,162.500000 230.500000,172.500000 230.500000,182.500000 
"/>
<path fill="none" opacity="1.000000" stroke="#000000" stroke-linecap="round" stroke-linejoin="round" stroke-width="3.000000"
	d="
M214.500000,201.000000 
	C206.411758,205.501144 200.116989,212.274506 193.051376,218.062714 
	C190.708923,219.981689 187.850067,221.516724 186.500000,224.500000 
"/>
<path fill="none" opacity="1.000000" stroke="#000000" stroke-linecap="round" stroke-linejoin="round" stroke-width="3.000000"
	d="
M238.000000,232.500000 
	C240.118835,237.551468 238.748352,242.837158 238.902451,248.002914 
	C238.996124,251.143082 239.982285,254.506912 238.000000,257.500000 
"/>
<path fill="none" opacity="1.000000" stroke="#000000" stroke-linecap="round" stroke-linejoin="round" stroke-width="4.000000"
	d="
M196.000000,220.500000 
	C194.896713,228.814606 195.751236,237.168289 195.567749,245.501495 
	C195.553314,246.156815 196.500015,246.833328 197.000015,247.500000 
"/>
<path fill="none" opacity="1.000000" stroke="#000000" stroke-linecap="round" stroke-linejoin="round" stroke-width="5.000000"
	d="
M238.500000,122.500000 
	C239.957642,126.258194 239.354401,129.040573 236.771790,132.692215 
	C233.279465,137.630142 229.191086,142.814697 229.000000,149.500000 
"/>
<path fill="none" opacity="1.000000" stroke="#000000" stroke-linecap="round" stroke-linejoin="round" stroke-width="5.000000"
	d="
M257.000000,260.500000 
	C258.775787,267.333344 258.404358,274.166656 257.000000,281.000000 
"/>
<path fill="none" opacity="1.000000" stroke="#000000" stroke-linecap="round" stroke-linejoin="round" stroke-width="3.000000"
	d="
M294.750000,167.500000 
	C302.778442,170.128036 308.904144,175.440277 314.500000,181.500000 
"/>
<path fill="none" opacity="1.000000" stroke="#000000" stroke-linecap="round" stroke-linejoin="round" stroke-width="6.000000"
	d="
M269.500000,264.500000 
	C271.196198,270.551758 271.161469,276.555420 269.000000,282.500000 
"/>
<path fill="none" opacity="1.000000" stroke="#000000" stroke-linecap="round" stroke-linejoin="round" stroke-width="6.000000"
	d="
M263.500000,264.500000 
	C263.500000,270.166656 263.500000,275.833344 263.500000,281.500000 
"/>
<path fill="none" opacity="1.000000" stroke="#000000" stroke-linecap="round" stroke-linejoin="round" stroke-width="6.000000"
	d="
M277.500000,267.500000 
	C277.448425,272.850952 277.920044,278.234589 276.500000,283.500000 
"/>
<path fill="none" opacity="1.000000" stroke="#000000" stroke-linecap="round" stroke-linejoin="round" stroke-width="2.000000"
	d="
M300.500000,185.000000 
	C301.033264,184.399841 301.718170,183.520966 302.471466,184.041306 
	C306.200745,186.617310 309.833344,189.333328 313.500000,192.000000 
"/>
<path fill="none" opacity="1.000000" stroke="#000000" stroke-linecap="round" stroke-linejoin="round" stroke-width="3.000000"
	d="
M214.500000,183.500000 
	C214.491241,186.538010 214.397598,189.585449 215.500000,192.500000 
"/>
<path fill="none" opacity="1.000000" stroke="#000000" stroke-linecap="round" stroke-linejoin="round" stroke-width="3.000000"
	d="
M256.000000,192.500000 
	C256.256378,195.030991 259.664917,195.723236 259.500000,198.500000 
"/>
<path fill="none" opacity="1.000000" stroke="#000000" stroke-linecap="round" stroke-linejoin="round" stroke-width="3.000000"
	d="
M267.500000,178.500000 
	C268.666656,180.833328 269.833344,183.166672 271.000000,185.500000 
"/>
<path fill="none" opacity="1.000000" stroke="#000000" stroke-linecap="round" stroke-linejoin="round" stroke-width="3.000000"
	d="
M256.500000,170.500000 
	C256.226624,173.644180 258.934845,175.670258 259.500000,178.500000 
"/>
<path fill="none" opacity="1.000000" stroke="#000000" stroke-linecap="round" stroke-linejoin="round" stroke-width="3.000000"
	d="
M256.000000,157.500000 
	C257.000000,160.166672 258.000000,162.833328 259.000000,165.500000 
"/>
<path fill="none" opacity="1.000000" stroke="#000000" stroke-linecap="round" stroke-linejoin="round" stroke-width="2.000000"
	d="
M293.500000,172.500000 
	C296.314667,172.574677 299.328552,171.852402 301.500000,174.500000 
"/>
<path fill="none" opacity="1.000000" stroke="#000000" stroke-linecap="round" stroke-linejoin="round" stroke-width="2.000000"
	d="
M314.500000,184.500000 
	C316.261139,186.719437 315.638702,189.109146 315.000000,191.500000 
"/>
<path fill="none" opacity="1.000000" stroke="#000000" stroke-linecap="round" stroke-linejoin="round" stroke-width="3.000000"
	d="
M262.000000,222.500000 
	C261.929199,224.809158 265.070801,225.190842 265.000000,227.500000 
"/>
<path fill="none" opacity="1.000000" stroke="#000000" stroke-linecap="round" stroke-linejoin="round" stroke-width="3.000000"
	d="
M268.000000,254.500000 
	C268.422485,255.410843 268.227814,256.890778 270.002502,256.511719 
	C271.612579,256.167816 271.618652,257.548004 272.000000,258.500000 
"/>
<path fill="none" opacity="1.000000" stroke="#000000" stroke-linecap="round" stroke-linejoin="round" stroke-width="3.000000"
	d="
M263.000000,175.500000 
	C262.630737,177.845306 264.743195,179.363373 265.000000,181.500000 
"/>
<path fill="none" opacity="1.000000" stroke="#000000" stroke-linecap="round" stroke-linejoin="round" stroke-width="3.000000"
	d="
M268.000000,215.500000 
	C267.880676,217.838272 271.253876,218.081009 271.000000,220.500000 
"/>
<path fill="none" opacity="1.000000" stroke="#000000" stroke-linecap="round" stroke-linejoin="round" stroke-width="2.000000"
	d="
M197.500000,296.500000 
	C195.843674,296.229889 194.077469,297.058685 192.500000,296.000000 
"/>
<path fill="none" opacity="1.000000" stroke="#000000" stroke-linecap="round" stroke-linejoin="round" stroke-width="3.000000"
	d="
M261.500000,161.500000 
	C262.833344,164.500000 264.166656,167.500000 265.500000,170.500000 
"/>
<path fill="none" opacity="1.000000" stroke="#000000" stroke-linecap="round" stroke-linejoin="round" stroke-width="3.000000"
	d="
M268.000000,191.500000 
	C269.000000,193.500000 270.000000,195.500000 271.000000,197.500000 
"/>
</svg>